<svg xmlns="http://www.w3.org/2000/svg" width="188.07" height="35" viewBox="0 0 188.07 35"><rect class="svg__rect" x="0" y="0" width="64.89" height="35" fill="#3B3700"/><rect class="svg__rect" x="62.89" y="0" width="125.17999999999999" height="35" fill="#EEF272"/><path class="svg__text" d="M14.08 19.16L14.08 19.16L14.08 13.47L15.56 13.47L15.56 19.18Q15.56 20.03 15.99 20.48Q16.43 20.93 17.27 20.93L17.27 20.93Q18.98 20.93 18.98 19.13L18.98 19.13L18.98 13.47L20.46 13.47L20.46 19.17Q20.46 20.53 19.59 21.32Q18.72 22.12 17.27 22.12L17.27 22.12Q15.81 22.12 14.94 21.33Q14.08 20.55 14.08 19.16ZM24.59 19.42L24.59 19.42L26.08 19.42Q26.08 20.15 26.56 20.55Q27.04 20.95 27.93 20.95L27.93 20.95Q28.71 20.95 29.10 20.63Q29.49 20.32 29.49 19.80L29.49 19.80Q29.49 19.24 29.09 18.94Q28.70 18.63 27.66 18.32Q26.63 18.01 26.02 17.63L26.02 17.63Q24.86 16.90 24.86 15.72L24.86 15.72Q24.86 14.69 25.70 14.02Q26.54 13.35 27.88 13.35L27.88 13.35Q28.77 13.35 29.47 13.68Q30.17 14.01 30.56 14.61Q30.96 15.22 30.96 15.96L30.96 15.96L29.49 15.96Q29.49 15.29 29.07 14.91Q28.65 14.54 27.87 14.54L27.87 14.54Q27.14 14.54 26.74 14.85Q26.34 15.16 26.34 15.71L26.34 15.71Q26.34 16.18 26.77 16.50Q27.21 16.81 28.20 17.10Q29.20 17.40 29.80 17.78Q30.41 18.16 30.69 18.65Q30.97 19.13 30.97 19.79L30.97 19.79Q30.97 20.86 30.15 21.49Q29.33 22.12 27.93 22.12L27.93 22.12Q27.01 22.12 26.23 21.77Q25.46 21.43 25.02 20.83Q24.59 20.22 24.59 19.42ZM40.84 22L35.26 22L35.26 13.47L40.80 13.47L40.80 14.66L36.74 14.66L36.74 17.02L40.24 17.02L40.24 18.19L36.74 18.19L36.74 20.82L40.84 20.82L40.84 22ZM44.60 19.42L44.60 19.42L46.08 19.42Q46.08 20.15 46.56 20.55Q47.04 20.95 47.94 20.95L47.94 20.95Q48.71 20.95 49.10 20.63Q49.49 20.32 49.49 19.80L49.49 19.80Q49.49 19.24 49.10 18.94Q48.70 18.63 47.67 18.32Q46.64 18.01 46.03 17.63L46.03 17.63Q44.86 16.90 44.86 15.72L44.86 15.72Q44.86 14.69 45.70 14.02Q46.54 13.35 47.89 13.35L47.89 13.35Q48.78 13.35 49.47 13.68Q50.17 14.01 50.57 14.61Q50.97 15.22 50.97 15.96L50.97 15.96L49.49 15.96Q49.49 15.29 49.07 14.91Q48.65 14.54 47.87 14.54L47.87 14.54Q47.15 14.54 46.75 14.85Q46.34 15.16 46.34 15.71L46.34 15.71Q46.34 16.18 46.78 16.50Q47.21 16.81 48.21 17.10Q49.20 17.40 49.81 17.78Q50.41 18.16 50.69 18.65Q50.97 19.13 50.97 19.79L50.97 19.79Q50.97 20.86 50.16 21.49Q49.34 22.12 47.94 22.12L47.94 22.12Q47.01 22.12 46.24 21.77Q45.46 21.43 45.03 20.83Q44.60 20.22 44.60 19.42Z" fill="#FFFFFF"/><path class="svg__text" d="M76.49 21.24L76.49 21.24L77.27 19.49Q77.83 19.86 78.58 20.09Q79.32 20.32 80.04 20.32L80.04 20.32Q81.41 20.32 81.41 19.64L81.41 19.64Q81.41 19.28 81.02 19.11Q80.63 18.93 79.77 18.74L79.77 18.74Q78.82 18.53 78.18 18.30Q77.55 18.06 77.09 17.55Q76.64 17.03 76.64 16.16L76.64 16.16Q76.64 15.39 77.06 14.77Q77.48 14.15 78.31 13.79Q79.15 13.43 80.35 13.43L80.35 13.43Q81.18 13.43 81.99 13.62Q82.79 13.80 83.41 14.17L83.41 14.17L82.67 15.93Q81.47 15.28 80.34 15.28L80.34 15.28Q79.63 15.28 79.31 15.49Q78.99 15.70 78.99 16.04L78.99 16.04Q78.99 16.37 79.37 16.54Q79.76 16.71 80.61 16.89L80.61 16.89Q81.57 17.10 82.20 17.33Q82.83 17.56 83.29 18.07Q83.75 18.58 83.75 19.46L83.75 19.46Q83.75 20.21 83.33 20.83Q82.91 21.44 82.07 21.80Q81.23 22.17 80.03 22.17L80.03 22.17Q79.01 22.17 78.05 21.92Q77.09 21.67 76.49 21.24ZM89.75 22L87.32 22L91.03 13.60L93.37 13.60L97.09 22L94.62 22L93.96 20.37L90.41 20.37L89.75 22ZM92.18 15.93L91.10 18.61L93.26 18.61L92.18 15.93ZM103.32 22L100.60 13.60L103.05 13.60L104.73 18.96L106.51 13.60L108.70 13.60L110.39 19.01L112.15 13.60L114.42 13.60L111.70 22L109.15 22L107.55 16.89L105.86 22L103.32 22ZM118.50 17.80L118.50 17.80Q118.50 16.55 119.11 15.55Q119.71 14.56 120.77 14.00Q121.84 13.43 123.17 13.43L123.17 13.43Q124.50 13.43 125.56 14.00Q126.62 14.56 127.23 15.55Q127.84 16.55 127.84 17.80L127.84 17.80Q127.84 19.05 127.23 20.04Q126.62 21.04 125.56 21.60Q124.50 22.17 123.17 22.17L123.17 22.17Q121.84 22.17 120.77 21.60Q119.71 21.04 119.11 20.04Q118.50 19.05 118.50 17.80ZM120.90 17.80L120.90 17.80Q120.90 18.51 121.20 19.05Q121.50 19.60 122.02 19.90Q122.53 20.20 123.17 20.20L123.17 20.20Q123.81 20.20 124.32 19.90Q124.84 19.60 125.14 19.05Q125.44 18.51 125.44 17.80L125.44 17.80Q125.44 17.09 125.14 16.54Q124.84 16 124.32 15.70Q123.81 15.40 123.17 15.40L123.17 15.40Q122.53 15.40 122.02 15.70Q121.50 16 121.20 16.54Q120.90 17.09 120.90 17.80ZM138.95 22L132.57 22L132.57 13.60L134.95 13.60L134.95 20.11L138.95 20.11L138.95 22ZM144.79 22L142.36 22L146.07 13.60L148.42 13.60L152.13 22L149.66 22L149.00 20.37L145.45 20.37L144.79 22ZM147.23 15.93L146.14 18.61L148.30 18.61L147.23 15.93ZM160.83 22L156.28 22L156.28 13.60L160.59 13.60Q162.19 13.60 163.03 14.19Q163.87 14.79 163.87 15.79L163.87 15.79Q163.87 16.39 163.58 16.87Q163.28 17.34 162.74 17.62L162.74 17.62Q163.46 17.87 163.87 18.41Q164.28 18.94 164.28 19.70L164.28 19.70Q164.28 20.80 163.39 21.40Q162.50 22 160.83 22L160.83 22ZM158.64 18.58L158.64 20.28L160.63 20.28Q161.88 20.28 161.88 19.43L161.88 19.43Q161.88 18.58 160.63 18.58L160.63 18.58L158.64 18.58ZM158.64 15.31L158.64 16.94L160.27 16.94Q161.47 16.94 161.47 16.12L161.47 16.12Q161.47 15.31 160.27 15.31L160.27 15.31L158.64 15.31ZM168.41 21.24L168.41 21.24L169.19 19.49Q169.75 19.86 170.49 20.09Q171.24 20.32 171.96 20.32L171.96 20.32Q173.32 20.32 173.33 19.64L173.33 19.64Q173.33 19.28 172.94 19.11Q172.55 18.93 171.68 18.74L171.68 18.74Q170.73 18.53 170.10 18.30Q169.46 18.06 169.01 17.55Q168.55 17.03 168.55 16.16L168.55 16.16Q168.55 15.39 168.97 14.77Q169.39 14.15 170.23 13.79Q171.06 13.43 172.27 13.43L172.27 13.43Q173.10 13.43 173.90 13.62Q174.71 13.80 175.32 14.17L175.32 14.17L174.59 15.93Q173.39 15.28 172.26 15.28L172.26 15.28Q171.55 15.28 171.23 15.49Q170.90 15.70 170.90 16.04L170.90 16.04Q170.90 16.37 171.29 16.54Q171.67 16.71 172.52 16.89L172.52 16.89Q173.48 17.10 174.11 17.33Q174.74 17.56 175.20 18.07Q175.67 18.58 175.67 19.46L175.67 19.46Q175.67 20.21 175.25 20.83Q174.83 21.44 173.99 21.80Q173.15 22.17 171.95 22.17L171.95 22.17Q170.93 22.17 169.97 21.92Q169.01 21.67 168.41 21.24Z" fill="#000000" x="75.89"/></svg>